# xmcd
#
# Track frame offsets: 
#        150
#        9545
#        27095
#        45210
#        63620
#        85558
#        108020
#        132480
#        146345
#        163505
#        177395
#        203195
#        218345
#        228320
#        240815
#        249900
#        261320
#
# Disc length: 3638 seconds
#
# Revision: 4
# Processed by: cddbd v1.5.2PL0 Copyright (c) Steve Scherf et al.
# Submitted via: ExactAudioCopy v0.99pb4
#
DISCID=ce0e3411
DTITLE=Various Artist - Blues With A Feeling  [Disc 1]
DYEAR=1993
DGENRE=Blues
TTITLE0=Dick Waterman - Introduction
TTITLE1=Son House - Preaching Blues
TTITLE2=Son House - Death Letter Blues
TTITLE3=Son House - Empire State Express
TTITLE4=Skip James - Devil Got My Woman
TTITLE5=Bukka White - Aberdeen Mississippi Blues
TTITLE6=Robert Pete Williams - Levee Camp Blues
TTITLE7=Mississippi Fred McDowell - Louise
TTITLE8=Reverend Robert Wilkins - Don't You Let Nobody Turn You Round
TTITLE9=Reverend Pearly Brown and Mrs. Christine Brown - Keep Your Lamp 
TTITLE9=Trimmed And Burning
TTITLE10=Mississippi Fred McDowell, Annie Mae McDowell and Rev. Robert W
TTITLE10=ilkins - What Do You Think Ab
TTITLE11=Lightnin' Hopkins - The Women I'm Loving, She's Taken My Appe
TTITLE11=tite
TTITLE12=Lightnin' Hopkins - Come On Baby
TTITLE13=Lightnin' Hopkins - Baby Please Don't Go
TTITLE14=Mance Lipscomb - Freddie
TTITLE15=Mance Lipscomb - So Different Blues
TTITLE16=Mance Lipscomb - God Moves On The Water
EXTD=
EXTT0=
EXTT1=
EXTT2=
EXTT3=
EXTT4=
EXTT5=
EXTT6=
EXTT7=
EXTT8=
EXTT9=
EXTT10=
EXTT11=
EXTT12=
EXTT13=
EXTT14=
EXTT15=
EXTT16=
PLAYORDER=
